<?xml version="1.0" encoding="utf-8"?>
<!-- Generator: Adobe Illustrator 26.2.1, SVG Export Plug-In . SVG Version: 6.00 Build 0)  -->
<svg version="1.1" id="Ebene_1" xmlns="http://www.w3.org/2000/svg" xmlns:xlink="http://www.w3.org/1999/xlink" x="0px" y="0px"
	 viewBox="0 0 12.9 13.4" style="enable-background:new 0 0 12.9 13.4;" xml:space="preserve">
<style type="text/css">
	.st0{clip-path:url(#SVGID_00000175300595970879123930000015315692695263206063_);}
	.st1{fill:#3083DC;}
	.st2{fill:none;}
</style>
<g id="Gruppe_39" transform="translate(-787 -853.778)">
	<g id="Gruppe_38" transform="translate(787 853.778)">
		<g id="Gruppe_2" transform="translate(0 0)">
			<g>
				<g>
					<defs>
						<rect id="SVGID_1_" x="0.3" y="0.3" width="11.3" height="11.7"/>
					</defs>
					<clipPath id="SVGID_00000010998600463330947990000015543214308930793906_">
						<use xlink:href="#SVGID_1_"  style="overflow:visible;"/>
					</clipPath>
					
						<g id="Gruppe_1" transform="translate(0 0)" style="clip-path:url(#SVGID_00000010998600463330947990000015543214308930793906_);">
						<path id="Pfad_1" class="st1" d="M5.4,0.3c0.2,0,0.4,0,0.6,0.1c0.8,0.1,1.5,0.5,2.1,1C9.7,2.8,10.2,5,9.4,6.9
							C9.2,7.3,9,7.6,8.8,7.9C8.7,8,8.7,8,8.8,8.1c0.9,0.9,1.8,1.8,2.7,2.8c0.2,0.2,0.3,0.5,0.1,0.8s-0.5,0.4-0.8,0.2
							c0,0-0.1,0-0.1-0.1l-0.1-0.1c-0.9-0.9-1.8-1.8-2.7-2.8c-0.1-0.1-0.1-0.1-0.2,0c-1,0.7-2.2,0.9-3.3,0.7C3.5,9.5,2.7,9.1,2,8.5
							C1.2,7.8,0.6,6.8,0.5,5.7C0.3,4.8,0.5,3.9,0.9,3c0.4-0.8,0.9-1.5,1.6-2C3,0.7,3.7,0.4,4.4,0.3c0.1,0,0.2,0,0.2,0H5.4z
							 M5.1,1.5C3.2,1.5,1.6,3.1,1.6,5s1.6,3.5,3.5,3.5S8.6,6.9,8.6,5C8.5,3.1,7,1.5,5.1,1.5"/>
					</g>
				</g>
			</g>
		</g>
		<g id="Pfad_17" transform="translate(1.567 0.808)">
			<path class="st2" d="M3.6-0.2c2.4,0,4.3,1.9,4.3,4.3S6,8.3,3.6,8.3s-4.2-1.9-4.2-4.2l0,0C-0.6,1.7,1.3-0.2,3.6-0.2z"/>
			<path class="st1" d="M3.6,1.4c-1.4,0-2.7,1.2-2.7,2.7s1.2,2.7,2.7,2.7s2.7-1.2,2.7-2.7S5.1,1.4,3.6,1.4 M3.6-0.2
				c2.4,0,4.3,1.9,4.3,4.3S6,8.3,3.6,8.3s-4.2-1.9-4.2-4.2S1.3-0.2,3.6-0.2z"/>
		</g>
		
			<rect id="Rechteck_19" x="8.5" y="6.5" transform="matrix(0.7314 -0.682 0.682 0.7314 -4.2669 9.124)" class="st1" width="1.8" height="7"/>
	</g>
</g>
</svg>
