<svg xmlns="http://www.w3.org/2000/svg" xmlns:xlink="http://www.w3.org/1999/xlink" width="263.361" height="40.84" viewBox="0 0 263.361 40.84">
  <defs>
    <clipPath id="clip-path">
      <rect id="Rechteck_48" data-name="Rechteck 48" width="263.361" height="40.84" fill="none"/>
    </clipPath>
  </defs>
  <g id="Gruppe_39" data-name="Gruppe 39" transform="translate(-16 -16)">
    <g id="Gruppe_27" data-name="Gruppe 27" transform="translate(16 16)">
      <g id="Gruppe_25" data-name="Gruppe 25" transform="translate(0 0)" clip-path="url(#clip-path)">
        <path id="Pfad_9" data-name="Pfad 9" d="M86.65,40.114H74.23V.569q1.156.168,2.287.436a14.823,14.823,0,0,1,5.381,2.4,11.193,11.193,0,0,1,3.5,4.316,15.015,15.015,0,0,1,1.256,6.416V40.114Z" transform="translate(-34.929 -0.252)" fill="#c4c4c4"/>
        <path id="Pfad_15" data-name="Pfad 15" d="M86.65,40.114H74.23V.569q1.156.168,2.287.436a14.823,14.823,0,0,1,5.381,2.4,11.193,11.193,0,0,1,3.5,4.316,15.015,15.015,0,0,1,1.256,6.416V40.114Z" transform="translate(-55.42 -0.252)" fill="#c4c4c4"/>
        <rect id="Rechteck_46" data-name="Rechteck 46" width="12.193" height="39.545" transform="translate(-1.446 0.317)" fill="#c4c4c4"/>
        <path id="Pfad_11" data-name="Pfad 11" d="M146.677,12.053a17.675,17.675,0,0,0-10.4-10.582A22.565,22.565,0,0,0,127.986.007a22.265,22.265,0,0,0-8.257,1.464,17.751,17.751,0,0,0-10.358,10.584,23.951,23.951,0,0,0-1.426,8.445,23.638,23.638,0,0,0,1.426,8.407,18.317,18.317,0,0,0,4.054,6.416,17.815,17.815,0,0,0,6.305,4.091,22.793,22.793,0,0,0,8.257,1.426,23.09,23.09,0,0,0,8.294-1.429,17.744,17.744,0,0,0,6.343-4.091,18.32,18.32,0,0,0,4.054-6.416A23.639,23.639,0,0,0,148.1,20.5a23.933,23.933,0,0,0-1.426-8.445M136.995,25.04a12.135,12.135,0,0,1-1.539,3.978,8.135,8.135,0,0,1-2.927,2.815,9.071,9.071,0,0,1-4.541,1.051,8.863,8.863,0,0,1-4.5-1.051,8.231,8.231,0,0,1-2.89-2.815,12.149,12.149,0,0,1-1.539-3.978,22.827,22.827,0,0,1-.45-4.542,23.42,23.42,0,0,1,.45-4.579,11.727,11.727,0,0,1,1.538-3.978,8.2,8.2,0,0,1,7.394-3.9v0a8.82,8.82,0,0,1,4.54,1.09,8.575,8.575,0,0,1,2.927,2.815,11.713,11.713,0,0,1,1.539,3.978,23.427,23.427,0,0,1,.453,4.579,22.829,22.829,0,0,1-.451,4.542" transform="translate(-47.849 -0.002)" fill="#c4c4c4"/>
        <path id="Pfad_12" data-name="Pfad 12" d="M209.675,40.7h-11.86L184.529,1.893h11.185l8.181,26.5h.15l8.182-26.5h10.584Z" transform="translate(-81.797 -0.839)" fill="#c4c4c4"/>
        <rect id="Rechteck_47" data-name="Rechteck 47" width="11.784" height="11.56" transform="translate(139.588 28.302)" fill="#c4c4c4"/>
        <path id="Pfad_13" data-name="Pfad 13" d="M345.894,39.861H335.236V17.868c0-1.293-.051-2.531-.15-3.678a7.829,7.829,0,0,0-.826-3,5.023,5.023,0,0,0-1.989-2.027,7.229,7.229,0,0,0-3.565-.75,6.853,6.853,0,0,0-3.64.863,6.278,6.278,0,0,0-2.177,2.252,9.064,9.064,0,0,0-1.051,3.153,24.258,24.258,0,0,0-.263,3.564V39.861h-10.66V18.093c0-1.147-.025-2.3-.075-3.415a9.631,9.631,0,0,0-.638-3.115,4.812,4.812,0,0,0-1.877-2.289,7.112,7.112,0,0,0-3.866-.862,8.016,8.016,0,0,0-1.989.338,6.638,6.638,0,0,0-2.4,1.276,7.5,7.5,0,0,0-1.989,2.7,11.022,11.022,0,0,0-.824,4.616V39.861h-10.66V1.054h10.058V6.308h.15a15.247,15.247,0,0,1,5.067-4.655A13.781,13.781,0,0,1,308.664,0a15.692,15.692,0,0,1,6.718,1.426A8.535,8.535,0,0,1,318.056,3.4,11.042,11.042,0,0,1,320,6.457a16.6,16.6,0,0,1,4.691-4.5A11.463,11.463,0,0,1,327.927.49,14.124,14.124,0,0,1,331.708,0a20.776,20.776,0,0,1,5.7.75,11.546,11.546,0,0,1,4.5,2.4,11.063,11.063,0,0,1,2.927,4.316,17.592,17.592,0,0,1,1.051,6.416V39.861Z" transform="translate(-127.041 0)" fill="#1d6cb5"/>
        <path id="Pfad_14" data-name="Pfad 14" d="M423.308,40.838a22.271,22.271,0,0,1-8.257-1.464,17.251,17.251,0,0,1-6.23-4.166,18.827,18.827,0,0,1-3.942-6.456,23.73,23.73,0,0,1-1.388-8.257,22.723,22.723,0,0,1,1.426-8.107A18.759,18.759,0,0,1,415.239,1.58,20.192,20.192,0,0,1,423.308,0a21.47,21.47,0,0,1,4.635.479,16.305,16.305,0,0,1,4,1.436,17.935,17.935,0,0,1,3.35,2.242,17.019,17.019,0,0,1,2.693,2.9,21.214,21.214,0,0,1,3.416,7.357,27.5,27.5,0,0,1,.75,8.63h-28a15.715,15.715,0,0,0,.769,4.467,7.265,7.265,0,0,0,4.786,4.786,12.518,12.518,0,0,0,3.978.582,9.545,9.545,0,0,0,5.554-1.614,6.717,6.717,0,0,0,2.851-3.415h9.383a22.841,22.841,0,0,1-2.852,5.986,14.529,14.529,0,0,1-4.053,4,18.008,18.008,0,0,1-5.142,2.252,23.793,23.793,0,0,1-6.118.752m-.3-32.8a9.316,9.316,0,0,0-4.241.865,8.121,8.121,0,0,0-2.7,2.138,7.89,7.89,0,0,0-1.426,2.7,12.281,12.281,0,0,0-.488,2.553h17.339a16.627,16.627,0,0,0-1.041-3.565,9.328,9.328,0,0,0-1.623-2.59,5.951,5.951,0,0,0-2.411-1.576,10.064,10.064,0,0,0-3.407-.528" transform="translate(-178.858 -0.001)" fill="#1d6cb5"/>
      </g>
    </g>
  </g>
</svg>
