<svg xmlns="http://www.w3.org/2000/svg" xmlns:xlink="http://www.w3.org/1999/xlink" width="115.041" height="17.84" viewBox="0 0 115.041 17.84">
  <defs>
    <clipPath id="clip-path">
      <rect id="Rechteck_48" data-name="Rechteck 48" width="115.041" height="17.84" fill="none"/>
    </clipPath>
  </defs>
  <g id="Gruppe_28" data-name="Gruppe 28" transform="translate(-16 -16)">
    <g id="Gruppe_27" data-name="Gruppe 27" transform="translate(16 16)">
      <g id="Gruppe_25" data-name="Gruppe 25" transform="translate(0 0)" clip-path="url(#clip-path)">
        <path id="Pfad_9" data-name="Pfad 9" d="M78.771,17.843H74.23V.569a8.122,8.122,0,0,1,.836.191,5.042,5.042,0,0,1,1.968,1.049,4.828,4.828,0,0,1,1.278,1.885,7.68,7.68,0,0,1,.459,2.8V17.843Z" transform="translate(-56.178 -0.431)" fill="#606060"/>
        <rect id="Rechteck_46" data-name="Rechteck 46" width="4.326" height="16.952" transform="translate(0 0.46)" fill="#606060"/>
        <path id="Pfad_10" data-name="Pfad 10" d="M42.932,17.843H38.391V.569a8.121,8.121,0,0,1,.836.191,5.041,5.041,0,0,1,1.968,1.049,4.828,4.828,0,0,1,1.278,1.885,7.68,7.68,0,0,1,.459,2.8V17.843Z" transform="translate(-29.055 -0.431)" fill="#606060"/>
        <path id="Pfad_11" data-name="Pfad 11" d="M124.863,5.268A7.721,7.721,0,0,0,120.321.646,9.857,9.857,0,0,0,116.7.006a9.726,9.726,0,0,0-3.607.64,7.754,7.754,0,0,0-4.525,4.623,10.462,10.462,0,0,0-.623,3.689,10.325,10.325,0,0,0,.623,3.672,8,8,0,0,0,1.771,2.8,7.782,7.782,0,0,0,2.754,1.787,9.957,9.957,0,0,0,3.607.623,10.086,10.086,0,0,0,3.623-.624,7.751,7.751,0,0,0,2.771-1.787,8,8,0,0,0,1.771-2.8,10.326,10.326,0,0,0,.623-3.672,10.454,10.454,0,0,0-.623-3.689m-4.229,5.673a5.3,5.3,0,0,1-.672,1.738,3.553,3.553,0,0,1-1.279,1.23,3.962,3.962,0,0,1-1.984.459,3.872,3.872,0,0,1-1.967-.459,3.6,3.6,0,0,1-1.262-1.23,5.307,5.307,0,0,1-.672-1.738,9.971,9.971,0,0,1-.2-1.984,10.231,10.231,0,0,1,.2-2,5.123,5.123,0,0,1,.672-1.738,3.58,3.58,0,0,1,3.23-1.7h0a3.853,3.853,0,0,1,1.983.476,3.746,3.746,0,0,1,1.279,1.23,5.117,5.117,0,0,1,.672,1.738,10.233,10.233,0,0,1,.2,2,9.972,9.972,0,0,1-.2,1.984" transform="translate(-81.693 -0.004)" fill="#606060"/>
        <path id="Pfad_12" data-name="Pfad 12" d="M195.513,18.845h-5.181l-5.8-16.952h4.886l3.574,11.575h.066l3.574-11.575h4.624Z" transform="translate(-139.653 -1.433)" fill="#606060"/>
        <rect id="Rechteck_47" data-name="Rechteck 47" width="5.147" height="5.05" transform="translate(60.975 12.363)" fill="#606060"/>
        <path id="Pfad_13" data-name="Pfad 13" d="M312.5,17.412h-4.656V7.805c0-.565-.022-1.106-.066-1.607a3.42,3.42,0,0,0-.361-1.312A2.194,2.194,0,0,0,306.547,4a3.158,3.158,0,0,0-1.557-.328,2.994,2.994,0,0,0-1.59.377,2.742,2.742,0,0,0-.951.984,3.96,3.96,0,0,0-.459,1.377,10.6,10.6,0,0,0-.115,1.557v9.444h-4.656V7.9c0-.5-.011-1-.033-1.492a4.206,4.206,0,0,0-.279-1.361,2.1,2.1,0,0,0-.82-1,3.107,3.107,0,0,0-1.689-.377,3.5,3.5,0,0,0-.869.148,2.9,2.9,0,0,0-1.049.557,3.277,3.277,0,0,0-.869,1.18,4.815,4.815,0,0,0-.36,2.016v9.837h-4.657V.46h4.394v2.3h.066A6.66,6.66,0,0,1,293.268.722,6.02,6.02,0,0,1,296.235,0a6.855,6.855,0,0,1,2.935.623,3.728,3.728,0,0,1,1.168.861,4.824,4.824,0,0,1,.848,1.336A7.251,7.251,0,0,1,303.236.853a5.007,5.007,0,0,1,1.414-.639A6.17,6.17,0,0,1,306.3,0a9.076,9.076,0,0,1,2.491.328,5.043,5.043,0,0,1,1.967,1.049,4.833,4.833,0,0,1,1.279,1.885,7.685,7.685,0,0,1,.459,2.8V17.412Z" transform="translate(-216.899 0)" fill="#1d6cb5"/>
        <path id="Pfad_14" data-name="Pfad 14" d="M412.147,17.84a9.728,9.728,0,0,1-3.607-.639,7.536,7.536,0,0,1-2.721-1.82,8.224,8.224,0,0,1-1.722-2.82,10.366,10.366,0,0,1-.607-3.607,9.926,9.926,0,0,1,.623-3.541A8.194,8.194,0,0,1,408.622.692,8.82,8.82,0,0,1,412.147,0a9.378,9.378,0,0,1,2.024.209,7.122,7.122,0,0,1,1.746.627,7.834,7.834,0,0,1,1.463.979,7.435,7.435,0,0,1,1.176,1.267A9.266,9.266,0,0,1,420.049,6.3a12.011,12.011,0,0,1,.328,3.77h-12.23a6.864,6.864,0,0,0,.336,1.951,3.173,3.173,0,0,0,2.09,2.09,5.468,5.468,0,0,0,1.738.254,4.17,4.17,0,0,0,2.426-.705,2.934,2.934,0,0,0,1.246-1.492h4.1a9.977,9.977,0,0,1-1.246,2.615,6.346,6.346,0,0,1-1.771,1.746,7.866,7.866,0,0,1-2.246.984,10.393,10.393,0,0,1-2.672.329m-.131-14.33a4.069,4.069,0,0,0-1.852.378,3.547,3.547,0,0,0-1.18.934A3.446,3.446,0,0,0,408.36,6a5.365,5.365,0,0,0-.213,1.115h7.574a7.263,7.263,0,0,0-.455-1.557,4.075,4.075,0,0,0-.709-1.131,2.6,2.6,0,0,0-1.053-.688,4.4,4.4,0,0,0-1.488-.231" transform="translate(-305.366 -0.002)" fill="#1d6cb5"/>
      </g>
    </g>
  </g>
</svg>
